<svg xmlns="http://www.w3.org/2000/svg" viewBox="0 0 512 512" xmlns:v="https://vecta.io/nano">
  <path
    d="M132.414 44.138v67.851c0 18.73 7.441 36.693 20.684 49.937l71.249 71.249c3.311 3.311 5.171 7.801 5.171 12.484v20.684c0 4.682-1.86 9.173-5.171 12.484l-71.249 71.249c-13.244 13.242-20.684 31.206-20.684 49.935v67.851h247.172v-67.851c0-18.73-7.441-36.693-20.684-49.937l-71.249-71.249c-3.311-3.311-5.171-7.801-5.171-12.484v-20.684c0-4.682 1.86-9.173 5.171-12.484l71.249-71.249c13.244-13.243 20.684-31.206 20.684-49.935V44.138H132.414z"
    fill="#e4eaf6"
  />
  <path
    d="M220.69 115.456v-62.49h-88.276v59.023c0 18.73 7.441 36.692 20.684 49.937l71.247 71.247c3.311 3.311 5.172 7.802 5.172 12.484v20.684c0 4.682-1.86 9.173-5.171 12.484l-71.247 71.247a70.62 70.62 0 0 0-20.685 49.938v59.023h88.276v-62.49c0-17.078 2.753-34.046 8.154-50.248l14.705-44.114a70.63 70.63 0 0 0 3.624-22.333v-47.7a70.63 70.63 0 0 0-3.624-22.333l-14.705-44.114a158.86 158.86 0 0 1-8.154-50.245z"
    fill="#d7deed"
  />
  <path
    d="M340.177 368.802l-28.182-28.182c-3.311-3.311-7.801-5.171-12.484-5.171h-17.027c-9.751 0-17.655-7.904-17.655-17.655v-84.623c0-9.365 3.721-18.347 10.343-24.969l43.066-43.063c2.526-2.526 3.281-6.319 1.913-9.621-1.366-3.293-4.586-5.449-8.156-5.449h-111.99a8.84 8.84 0 0 0-8.156 5.449 8.83 8.83 0 0 0 1.913 9.621l43.066 43.063a35.31 35.31 0 0 1 10.343 24.969v84.622c0 9.751-7.904 17.655-17.655 17.655h-17.028a17.65 17.65 0 0 0-12.483 5.17l-28.179 28.174a44.15 44.15 0 0 0-12.929 31.217v32.543a8.83 8.83 0 0 0 8.828 8.828h176.552a8.83 8.83 0 0 0 8.828-8.828V400.01c-.002-11.705-4.651-22.932-12.928-31.208z"
    fill="#ffd782"
  />
  <path
    d="M191.849 155.518a8.83 8.83 0 0 0 1.913 9.621l43.066 43.062a35.31 35.31 0 0 1 10.344 24.969v-1.02a70.63 70.63 0 0 0-3.624-22.333l-14.705-44.115c-1.711-5.135-3.059-10.367-4.235-15.634h-24.604a8.84 8.84 0 0 0-8.155 5.45zm28.841 241.026c0-17.078 2.753-34.046 8.154-50.248l3.719-11.155c-.993.173-2.002.307-3.044.307H212.49c-4.682 0-9.173 1.859-12.483 5.171l-28.179 28.174c-8.279 8.278-12.931 19.508-12.931 31.217v32.542a8.83 8.83 0 0 0 8.828 8.828h52.966l-.001-44.836h0z"
    fill="#ffc36e"
  />
  <path 
    d="M379.586 52.966H132.414a8.83 8.83 0 0 1-8.828-8.828V26.483h264.828v17.655a8.83 8.83 0 0 1-8.828 8.828z" 
    fill="#5b5d6e"
  />
  <path 
    d="M220.69 44.138V26.483h-97.103v17.655a8.83 8.83 0 0 0 8.828 8.828h97.103a8.83 8.83 0 0 1-8.828-8.828z"
    fill="#464655"
  />
  <path
    d="M388.414 35.31H123.586a8.83 8.83 0 0 1-8.828-8.828V8.828A8.83 8.83 0 0 1 123.586 0h264.828a8.83 8.83 0 0 1 8.828 8.828v17.655a8.83 8.83 0 0 1-8.828 8.827z"
    fill="#959cb3"
  />
  <path 
    d="M211.862 26.483V8.828A8.83 8.83 0 0 1 220.69 0h-97.103a8.83 8.83 0 0 0-8.828 8.828v17.655a8.83 8.83 0 0 0 8.828 8.828h97.103a8.83 8.83 0 0 1-8.828-8.828z"
    fill="#707487"
  />
  <path 
    d="M379.586 459.034H132.414a8.83 8.83 0 0 0-8.828 8.828v17.655h264.828v-17.655a8.83 8.83 0 0 0-8.828-8.828z"
    fill="#5b5d6e"
  />
  <path 
    d="M220.69 467.862v17.655h-97.103v-17.655a8.83 8.83 0 0 1 8.828-8.828h97.103a8.83 8.83 0 0 0-8.828 8.828z"
    fill="#464655"
  />
  <path 
    d="M388.414 476.69H123.586a8.83 8.83 0 0 0-8.828 8.828v17.655a8.83 8.83 0 0 0 8.828 8.828h264.828a8.83 8.83 0 0 0 8.828-8.828v-17.655a8.83 8.83 0 0 0-8.828-8.828z" 
    fill="#959cb3"
  />
  <path 
    d="M211.862 485.517v17.655A8.83 8.83 0 0 0 220.69 512h-97.103a8.83 8.83 0 0 1-8.828-8.828v-17.655a8.83 8.83 0 0 1 8.828-8.828h97.103a8.83 8.83 0 0 0-8.828 8.828z"
    fill="#707487"
  />
</svg>
